<svg width="163" height="191" viewBox="0 0 163 191" fill="none" xmlns="http://www.w3.org/2000/svg">
<rect width="163" height="191" fill="white"/>
<path d="M36 80.5V57L57.5 69L36 80.5Z" fill="#2C2626"/>
<path d="M134.953 105.418L134.496 128.914L113.234 116.498L134.953 105.418Z" fill="#2C2626"/>
<path d="M13 44L86.5 4V28.5L36 57V80.5L86.5 52V77L14 118L13 44Z" fill="#E3E3E3"/>
<path d="M14.5 165L86.5 125V100L14.5 140V165Z" fill="#E3E3E3"/>
<path d="M156 93L86.5 52V77L134.5 105.5V128L86.5 100V125L156 165.5V93Z" fill="#939393"/>
<path d="M156 43L86.5 4V28.5L156 68V43Z" fill="#939393"/>
<rect x="66.5" y="145.5" width="18" height="18" fill="#939393"/>
<rect x="88.5" y="167.5" width="18" height="18" fill="#939393"/>
<rect x="88.5" y="145.5" width="18" height="18" fill="#E3E3E3"/>
<rect x="66.5" y="167.5" width="18" height="18" fill="#E3E3E3"/>
</svg>
